:version 1.10
:name ASF
:units
  mass 1
  length 1
  angle deg
:documentation
  ASF file generated by Kaydara
:root
  axis xyz
  order  tx ty tz rx ry rz
  position 0 0 0
  orientation 0 0 0
:bonedata
  begin
    id 1
    name RightUpLegDummy
    direction -0.718183 -0.695806 0.00816078
    length 4.904
    axis 0 0 0 xyz
  end
  begin
    id 2
    name RightUpLeg
    direction 3.53373e-006 -0.995788 0.0916898
    length 17.4976
    axis -3.49089 -0.000906625 0.000286804 xyz
    dof rx ry rz
  end
  begin
    id 3
    name RightLeg
    direction 0.00371092 -0.995096 -0.0988419
    length 16.5821
    axis 3.68512 0.0193738 -0.131023 xyz
    dof rx ry rz
  end
  begin
    id 4
    name RightFoot
    direction 0.00079151 -0.46099 0.887405
    length 3.77069
    axis 4.81691e-005 -0.120479 -0.188788 xyz
    dof rx ry rz
  end
  begin
    id 5
    name RightToes
    direction 0 0 0
    length 0
    axis 0 0 0 xyz
    dof rx ry rz
  end
  begin
    id 6
    name SpineDummy
    direction 8.3039e-015 1 4.57515e-016
    length 4.6813
    axis 0 0 0 xyz
  end
  begin
    id 7
    name Spine
    direction -3.15643e-008 0.999988 0.00495137
    length 10.1015
    axis -0.001389 0.000121418 2.40972e-006 xyz
    dof rx ry rz
  end
  begin
    id 8
    name Spine1
    direction 0 0 0
    length 0
    axis -0.001389 0.000121451 1.30017e-006 xyz
    dof rx ry rz
  end
  begin
    id 9
    name HEadDummy
    direction -1.99912e-008 0.999999 0.00127422
    length 3.43865
    axis -0.001389 0.000121451 1.30017e-006 xyz
  end
  begin
    id 10
    name HEad
    direction 0 0 0
    length 0
    axis 0 0 0 xyz
    dof rx ry rz
  end
  begin
    id 11
    name LeftShoulder1Dummy
    direction 0.998891 -0.0402509 -0.0244456
    length 3.5433
    axis -0.001389 0.000121451 1.30017e-006 xyz
  end
  begin
    id 12
    name LeftShoulder1
    direction 0.99951 -0.000327763 0.0313091
    length 4.05031
    axis -0.001389 0.000121451 1.30017e-006 xyz
    dof rx ry rz
  end
  begin
    id 13
    name LeftArm
    direction 0.998561 -0.00100056 -0.0536182
    length 10.3537
    axis -23.1894 0.134784 0.967509 xyz
    dof rx ry rz
  end
  begin
    id 14
    name LeftForeArm
    direction 0.998903 0.00866432 0.046012
    length 8.70632
    axis -9.91835 -0.06569 -0.177794 xyz
    dof rx ry rz
  end
  begin
    id 15
    name LeftHand
    direction 0 0 0
    length 0
    axis 0 0 0 xyz
    dof rx ry rz
  end
  begin
    id 16
    name RightShoulderDummy
    direction -0.998891 -0.0402509 -0.0244414
    length 3.5433
    axis -0.001389 0.000121451 1.30017e-006 xyz
  end
  begin
    id 17
    name RightShoulder
    direction -0.99951 -0.000327807 0.0313133
    length 4.05031
    axis 0.215806 0.000203643 -0.0068026 xyz
    dof rx ry rz
  end
  begin
    id 18
    name RightArm
    direction -0.998573 -0.000999564 -0.053403
    length 10.3947
    axis -23.2009 -0.134239 -0.964101 xyz
    dof rx ry rz
  end
  begin
    id 19
    name RightForeArm
    direction -0.998898 0.00868028 0.0461306
    length 8.68355
    axis -9.92322 0.0658061 0.178868 xyz
    dof rx ry rz
  end
  begin
    id 20
    name RightHand
    direction 0 0 0
    length 0
    axis 0 0 0 xyz
    dof rx ry rz
  end
  begin
    id 21
    name LeftUpLegDummy
    direction 0.718183 -0.695806 0.00816078
    length 4.904
    axis 0 0 0 xyz
  end
  begin
    id 22
    name LeftUpLeg
    direction -6.81752e-006 -0.995793 0.0916337
    length 17.4976
    axis -3.48766 0.00143442 -0.000524262 xyz
    dof rx ry rz
  end
  begin
    id 23
    name LeftLeg
    direction -0.00601358 -0.995091 -0.0987824
    length 16.5821
    axis 3.68178 -0.00654042 -0.000285133 xyz
    dof rx ry rz
  end
  begin
    id 24
    name LeftFoot
    direction -0.00417578 -0.460984 0.887399
    length 3.77069
    axis 1.87233e-006 4.66016e-005 -8.6538e-006 xyz
    dof rx ry rz
  end
  begin
    id 25
    name LeftToes
    direction 0 0 0
    length 0
    axis 0 0 0 xyz
    dof rx ry rz
  end
:hierarchy
  begin
    root RightUpLegDummy SpineDummy LeftUpLegDummy
    RightUpLegDummy RightUpLeg
    RightUpLeg RightLeg
    RightLeg RightFoot
    RightFoot RightToes
    SpineDummy Spine
    Spine Spine1
    Spine1 HEadDummy LeftShoulder1Dummy RightShoulderDummy
    HEadDummy HEad
    LeftShoulder1Dummy LeftShoulder1
    LeftShoulder1 LeftArm
    LeftArm LeftForeArm
    LeftForeArm LeftHand
    RightShoulderDummy RightShoulder
    RightShoulder RightArm
    RightArm RightForeArm
    RightForeArm RightHand
    LeftUpLegDummy LeftUpLeg
    LeftUpLeg LeftLeg
    LeftLeg LeftFoot
    LeftFoot LeftToes
  end

:SAMPLES-PER-SECOND 30
:FULLY-SPECIFIED
:DEGREES
132
root  -43.437 39.6973 1.24518 -141.556 -82.5571 135.014
RightUpLeg  -3.07711 -3.78098 -10.6875
RightLeg  59.9303 -3.20413 -6.44795
RightFoot  5.09116 -1.08049 7.68212
RightToes  0.000481922 0.542163 -0.142578
Spine  2.35687 2.39087 -3.3274
Spine1  8.39894 2.86604 -1.0499
HEad  -8.96979 0.0546307 -2.21084
LeftShoulder1  9.28456 -12.9255 -49.3369
LeftArm  -7.82038 22.81 -27.1336
LeftForeArm  33.3552 -22.5628 -3.2966
LeftHand  -0.25398 0.0180481 5.50724
RightShoulder  6.59151 10.2558 41.6642
RightArm  -5.15166 -6.01398 34.8593
RightForeArm  23.5045 1.25852 6.60274
RightHand  -0.737109 1.27373 -13.0195
LeftUpLeg  -11.8435 7.9315 -7.17452
LeftLeg  9.08778 10.5932 -5.05908
LeftFoot  7.61916 -1.45162 8.39842
LeftToes  1.06245e-005 4.65869e-005 -8.65513e-006
133
root  -44.2145 39.9874 1.36821 -143.599 -83.3484 137.329
RightUpLeg  -8.2495 -4.40299 -9.84902
RightLeg  63.756 -3.26574 -7.75495
RightFoot  3.69713 -0.970794 7.54787
RightToes  0.000481922 0.542163 -0.142578
Spine  3.29023 1.89241 -3.29114
Spine1  8.359 2.0791 -0.0638026
HEad  -11.5096 0.71215 -2.44308
LeftShoulder1  9.35122 -13.1352 -49.0657
LeftArm  -9.70388 18.6775 -27.1837
LeftForeArm  35.0145 -27.4645 -4.01326
LeftHand  -0.25398 0.0180481 5.50724
RightShoulder  6.67144 10.3598 41.8669
RightArm  -4.52627 -10.0805 33.9766
RightForeArm  26.2999 2.41741 6.50651
RightHand  -0.719344 1.08374 -13.0136
LeftUpLeg  -9.93905 6.31466 -6.28523
LeftLeg  7.45918 11.7002 -5.70558
LeftFoot  6.95734 -1.40559 8.44769
LeftToes  1.06245e-005 4.65869e-005 -8.65513e-006
134
root  -44.8979 40.2104 1.49235 -145.19 -84.3242 139.537
RightUpLeg  -13.1563 -5.39311 -9.04051
RightLeg  64.5866 -3.03553 -7.57288
RightFoot  2.46138 -0.980488 8.22278
RightToes  0.000481922 0.542163 -0.142578
Spine  4.15314 1.19041 -3.48723
Spine1  7.87436 0.987614 1.11193
HEad  -13.3973 1.73834 -2.52492
LeftShoulder1  9.43542 -13.3553 -48.8609
LeftArm  -11.2163 14.9349 -26.7153
LeftForeArm  36.9294 -32.3091 -5.03635
LeftHand  -0.25398 0.0180481 5.50724
RightShoulder  6.48282 10.1319 41.3224
RightArm  -2.43874 -14.3888 33.2743
RightForeArm  24.2522 5.7592 7.2854
RightHand  -0.766295 1.63338 -12.8277
LeftUpLeg  -8.80195 4.47068 -5.57878
LeftLeg  6.14039 12.6955 -6.10004
LeftFoot  6.4422 -1.39823 8.66764
LeftToes  1.06245e-005 4.65869e-005 -8.65513e-006
135
root  -45.5193 40.3748 1.59571 -148.15 -85.001 142.973
RightUpLeg  -17.1029 -6.19658 -8.34023
RightLeg  62.6292 -3.27117 -7.39214
RightFoot  1.78846 -0.943074 8.28407
RightToes  0.000481922 0.542163 -0.142578
Spine  5.27218 0.550803 -4.06946
Spine1  7.13043 -0.119995 2.50402
HEad  -14.6396 3.10058 -2.74062
LeftShoulder1  9.51039 -13.4751 -48.9027
LeftArm  -11.751 11.2688 -25.5341
LeftForeArm  38.4968 -36.7282 -6.05219
LeftHand  -0.25398 0.0180481 5.50724
RightShoulder  6.18363 9.79406 40.3437
RightArm  0.862087 -18.0118 32.6904
RightForeArm  19.9634 9.36785 7.99401
RightHand  -0.762545 2.06395 -12.0666
LeftUpLeg  -7.93428 3.28709 -5.02882
LeftLeg  5.29684 13.2766 -6.36732
LeftFoot  6.21579 -1.41625 8.90589
LeftToes  1.06245e-005 4.65869e-005 -8.65513e-006
136
root  -46.1116 40.5182 1.66623 -152.581 -85.5919 147.527
RightUpLeg  -19.3375 -6.9718 -7.6559
RightLeg  57.9713 -4.24943 -7.73566
RightFoot  0.469798 -0.819776 7.94341
RightToes  0.000481922 0.542163 -0.142578
Spine  6.37742 -0.0069772 -4.6586
Spine1  6.66701 -1.12108 3.87033
HEad  -15.6593 4.4098 -2.95072
LeftShoulder1  9.46721 -13.3952 -48.9103
LeftArm  -11.4362 7.26253 -23.9076
LeftForeArm  39.5114 -40.1196 -6.92545
LeftHand  -0.25398 0.0180481 5.50724
RightShoulder  5.95602 9.56718 39.4587
RightArm  5.15256 -20.7219 32.3445
RightForeArm  15.3319 12.5591 7.80615
RightHand  -0.752781 2.21268 -11.6988
LeftUpLeg  -6.84785 3.18404 -4.56329
LeftLeg  4.84635 12.968 -6.47685
LeftFoot  5.75125 -1.42277 9.21361
LeftToes  1.06245e-005 4.65869e-005 -8.65513e-006
137
root  -46.6893 40.6284 1.70265 -155.771 -86.2977 150.643
RightUpLeg  -19.8159 -7.67184 -7.13018
RightLeg  51.104 -5.26893 -7.34534
RightFoot  -1.43768 -0.673665 7.64769
RightToes  0.000481922 0.542163 -0.142578
Spine  7.09553 -0.541721 -5.10638
Spine1  6.6657 -1.9928 4.84717
HEad  -16.4966 5.33131 -2.85882
LeftShoulder1  9.28311 -13.1862 -48.5567
LeftArm  -10.8849 3.01025 -22.4306
LeftForeArm  39.9521 -42.0459 -7.47298
LeftHand  -0.25398 0.0180481 5.50724
RightShoulder  5.80432 9.42878 38.8038
RightArm  7.78831 -22.6341 32.3726
RightForeArm  12.5205 14.5771 7.28607
RightHand  -0.771073 2.21098 -11.9792
LeftUpLeg  -5.73132 3.36125 -4.24028
LeftLeg  4.85947 12.2494 -6.38293
LeftFoot  4.84593 -1.39402 9.57122
LeftToes  1.06245e-005 4.65869e-005 -8.65513e-006
138
root  -47.2743 40.6831 1.70649 -155.64 -86.8547 150.322
RightUpLeg  -18.943 -7.70876 -6.98271
RightLeg  43.1919 -5.35936 -5.67807
RightFoot  -3.0091 -0.54494 7.18884
RightToes  0.000481922 0.542163 -0.142578
Spine  7.38551 -0.959967 -5.63486
Spine1  7.00019 -2.64913 5.39658
HEad  -16.7211 5.84928 -2.53386
LeftShoulder1  9.07755 -13.0424 -47.8878
LeftArm  -10.8126 -0.907677 -21.4854
LeftForeArm  40.2064 -42.6865 -7.65789
LeftHand  -0.25398 0.0180481 5.50724
RightShoulder  5.64839 9.2467 38.2454
RightArm  7.71088 -23.6727 32.7778
RightForeArm  11.7961 14.8801 7.1577
RightHand  -0.789506 2.16825 -12.3234
LeftUpLeg  -4.79491 3.40858 -4.19354
LeftLeg  5.40767 11.6908 -6.08692
LeftFoot  3.78063 -1.33118 9.82869
LeftToes  1.06245e-005 4.65869e-005 -8.65513e-006
139
root  -47.8831 40.6839 1.67664 -151.67 -87.0169 146.012
RightUpLeg  -17.0344 -7.03213 -7.22269
RightLeg  35.2417 -4.42575 -3.61257
RightFoot  -4.19415 -0.45504 6.82369
RightToes  0.000481922 0.542163 -0.142578
Spine  7.37309 -1.14508 -6.46696
Spine1  7.37277 -3.02843 5.77205
HEad  -15.9898 6.0063 -2.25193
LeftShoulder1  8.96069 -13.0704 -47.1803
LeftArm  -11.1466 -3.906 -21.0227
LeftForeArm  40.5005 -42.5384 -7.59426
LeftHand  -0.25398 0.0180481 5.50724
RightShoulder  5.50717 9.05514 37.8144
RightArm  5.30995 -24.0585 33.3164
RightForeArm  12.8456 13.7775 7.38435
RightHand  -0.792778 2.10507 -12.4712
LeftUpLeg  -3.96332 3.43535 -4.4093
LeftLeg  6.45259 11.4935 -5.69394
LeftFoot  2.54192 -1.22054 9.86951
LeftToes  1.06245e-005 4.65869e-005 -8.65513e-006
140
root  -48.5069 40.6596 1.61427 -143.087 -86.9578 137.096
RightUpLeg  -14.3601 -6.5961 -7.65067
RightLeg  27.4877 -2.89935 -1.86708
RightFoot  -4.73541 -0.414423 6.60339
RightToes  0.000481922 0.542163 -0.142578
Spine  7.02428 -1.15203 -7.54763
Spine1  7.39122 -3.17778 6.13266
HEad  -14.4302 5.69307 -2.00083
LeftShoulder1  8.93173 -13.1927 -46.6719
LeftArm  -11.0978 -5.79292 -20.835
LeftForeArm  40.5143 -41.9382 -7.40866
LeftHand  -0.25398 0.0180481 5.50724
RightShoulder  5.47588 9.0077 37.7331
RightArm  2.22924 -24.5559 33.7168
RightForeArm  14.3076 12.5187 7.45929
RightHand  -0.77333 1.87625 -12.5318
LeftUpLeg  -3.12892 3.51747 -4.81767
LeftLeg  7.58916 11.3524 -5.36849
LeftFoot  1.07824 -1.06582 9.70852
LeftToes  1.06245e-005 4.65869e-005 -8.65513e-006
141
root  -49.1216 40.6797 1.5423 -132.066 -86.9009 125.985
RightUpLeg  -11.4173 -6.99922 -7.92985
RightLeg  20.3746 -1.16809 -0.687405
RightFoot  -3.67706 -0.389528 5.49107
RightToes  0.000481922 0.542163 -0.142578
Spine  6.17173 -1.11576 -8.32305
Spine1  7.16025 -3.14707 6.3708
HEad  -12.6129 4.93607 -1.62624
LeftShoulder1  8.94313 -13.2609 -46.5382
LeftArm  -10.4691 -6.77398 -20.7927
LeftForeArm  40.1526 -41.2244 -7.21469
LeftHand  -0.25398 0.0180481 5.50724
RightShoulder  5.57134 9.09547 38.1683
RightArm  0.149823 -25.3673 33.7949
RightForeArm  14.6238 12.081 7.2832
RightHand  -0.739757 1.56862 -12.4976
LeftUpLeg  -2.08394 3.54057 -5.24476
LeftLeg  7.81697 10.996 -5.28919
LeftFoot  -0.0316169 -0.941941 9.49228
LeftToes  1.06245e-005 4.65869e-005 -8.65513e-006
142
root  -49.7083 40.7871 1.49658 -128.459 -86.866 122.486
RightUpLeg  -8.87392 -7.54177 -7.80274
RightLeg  15.2394 0.198436 -0.094046
RightFoot  -1.47827 -0.291916 3.27325
RightToes  0.000481922 0.542163 -0.142578
Spine  4.93993 -1.02326 -7.99952
Spine1  7.1416 -2.84509 6.12142
HEad  -11.0321 4.06341 -1.25392
LeftShoulder1  9.01549 -13.2851 -46.8549
LeftArm  -10.0552 -6.83528 -20.8405
LeftForeArm  40.0212 -40.9313 -7.13547
LeftHand  -0.25398 0.0180481 5.50724
RightShoulder  5.72722 9.18472 39.0479
RightArm  -0.816779 -25.772 33.4705
RightForeArm  13.8482 12.3014 7.08591
RightHand  -0.763059 1.76663 -12.5481
LeftUpLeg  -0.67923 3.40695 -5.38097
LeftLeg  6.73911 10.8009 -5.39101
LeftFoot  -0.373432 -0.893067 9.30445
LeftToes  1.06245e-005 4.65869e-005 -8.65513e-006
143
root  -50.2526 40.9307 1.49322 -140.621 -86.729 134.746
RightUpLeg  -7.12952 -7.47386 -7.31647
RightLeg  12.7888 0.87503 0.204538
RightFoot  -0.0108416 -0.165204 1.64113
RightToes  0.000481922 0.542163 -0.142578
Spine  3.75384 -0.79937 -6.43475
Spine1  7.52579 -2.27046 5.27578
HEad  -9.95696 3.52866 -1.22717
LeftShoulder1  9.14566 -13.2968 -47.5115
LeftArm  -10.3679 -5.64761 -21.0007
LeftForeArm  40.2856 -41.3272 -7.23798
LeftHand  -0.25398 0.0180481 5.50724
RightShoulder  5.86916 9.23468 39.9395
RightArm  -1.67427 -25.0247 32.9278
RightForeArm  12.9527 12.5758 6.89836
RightHand  -0.915238 2.82937 -13.1415
LeftUpLeg  0.754385 3.29111 -5.04521
LeftLeg  5.43676 11.207 -5.36743
LeftFoot  -0.494908 -0.858055 9.0484
LeftToes  1.06245e-005 4.65869e-005 -8.65513e-006
144
root  -50.7326 41.0412 1.51602 -160.893 -86.1579 155.13
RightUpLeg  -5.98724 -7.36921 -6.68443
RightLeg  11.6724 1.50907 0.540534
RightFoot  0.247782 -0.171204 1.70146
RightToes  0.000481922 0.542163 -0.142578
Spine  2.96118 -0.511155 -4.40015
Spine1  7.81396 -1.67285 4.31897
HEad  -9.36846 3.50456 -1.59225
LeftShoulder1  9.26195 -13.2927 -48.1363
LeftArm  -10.7092 -2.96261 -21.4184
LeftForeArm  39.9962 -41.8602 -7.41537
LeftHand  -0.25398 0.0180481 5.50724
RightShoulder  5.94648 9.30982 40.2562
RightArm  -3.46176 -23.3765 32.5318
RightForeArm  12.2853 12.7297 6.57988
RightHand  -1.15887 4.24455 -14.236
LeftUpLeg  1.64562 3.42743 -4.36774
LeftLeg  5.05919 11.9498 -5.0695
LeftFoot  -1.00567 -0.776257 8.63049
LeftToes  1.06245e-005 4.65869e-005 -8.65513e-006
145
root  -51.1415 41.1176 1.5323 -174.873 -85.3298 169.373
RightUpLeg  -5.00664 -7.41444 -6.13401
RightLeg  10.2182 2.20735 1.05888
RightFoot  0.488083 -0.231422 2.26556
RightToes  0.000481922 0.542163 -0.142578
Spine  2.43773 -0.315228 -2.86455
Spine1  7.76344 -1.37056 3.99573
HEad  -9.16926 3.88758 -2.08212
LeftShoulder1  9.2767 -13.247 -48.3461
LeftArm  -10.0207 0.605154 -22.0521
LeftForeArm  38.6426 -41.4823 -7.38336
LeftHand  -0.25398 0.0180481 5.50724
RightShoulder  5.86506 9.31057 39.6497
RightArm  -6.49781 -21.3114 32.3976
RightForeArm  11.4344 12.9083 6.069
RightHand  -1.37988 5.31983 -15.2552
LeftUpLeg  2.05567 3.66328 -3.64034
LeftLeg  5.15018 12.5417 -4.7415
LeftFoot  -1.65673 -0.686422 8.20682
LeftToes  1.06245e-005 4.65869e-005 -8.65513e-006
146
root  -51.5065 41.179 1.51971 178.66 -84.7076 176.164
RightUpLeg  -4.1094 -7.2923 -5.75905
RightLeg  8.65128 2.61735 1.57716
RightFoot  1.05287 -0.20837 1.98689
RightToes  0.000481922 0.542163 -0.142578
Spine  1.85257 -0.245938 -2.18348
Spine1  7.80406 -1.3874 4.40303
HEad  -9.16717 4.49912 -2.45258
LeftShoulder1  9.14454 -13.1467 -47.94
LeftArm  -7.80311 3.69911 -22.4683
LeftForeArm  37.3823 -39.3499 -6.83819
LeftHand  -0.25398 0.0180481 5.50724
RightShoulder  5.55679 9.02806 38.2809
RightArm  -10.1509 -18.7349 32.0366
RightForeArm  10.1016 13.1118 5.50969
RightHand  -1.54718 6.00044 -16.0658
LeftUpLeg  2.54333 3.74586 -3.12093
LeftLeg  4.75459 12.9547 -4.66202
LeftFoot  -2.09878 -0.638242 8.03992
LeftToes  1.06245e-005 4.65869e-005 -8.65513e-006
